<?xml version="1.0" standalone="no"?>
<!DOCTYPE svg PUBLIC "-//W3C//DTD SVG 20010904//EN"
 "http://www.w3.org/TR/2001/REC-SVG-20010904/DTD/svg10.dtd">
<svg version="1.0" xmlns="http://www.w3.org/2000/svg"
 width="1024.000000pt" height="1024.000000pt" viewBox="0 0 1024.000000 1024.000000"
 preserveAspectRatio="xMidYMid meet">
<metadata>
Created by potrace 1.11, written by Peter Selinger 2001-2013
</metadata>
<g transform="translate(0.000000,1024.000000) scale(0.100000,-0.100000)"
fill="#000000" stroke="none">
<path d="M0 7110 c0 -2776 2 -3130 15 -3130 10 0 15 -11 15 -35 0 -24 -5 -35
-15 -35 -13 0 -15 -72 -15 -585 l0 -584 42 -19 c24 -10 75 -40 115 -66 76 -49
74 -45 102 -161 5 -22 32 -114 59 -205 27 -91 68 -226 90 -300 22 -74 61 -203
86 -286 25 -84 46 -161 46 -172 0 -22 -2 -22 -300 -110 -74 -22 -151 -43 -170
-47 -78 -15 -70 63 -70 -696 l0 -679 5120 0 5120 0 0 5120 0 5120 -1075 0
-1075 0 -4 -22 c-9 -45 -47 -814 -50 -1023 -4 -191 -35 -645 -47 -674 -9 -23
-12 -23 -97 -18 -464 31 -769 28 -965 -7 -380 -70 -509 -102 -975 -247 -51
-16 -97 -27 -102 -24 -12 7 -1 73 18 110 8 17 43 59 77 95 33 36 76 94 95 130
47 91 62 110 134 164 35 26 105 92 155 147 51 55 108 106 126 113 18 8 50 30
71 49 22 19 80 60 129 91 50 31 117 79 150 106 33 27 84 66 113 85 192 128
431 340 565 501 14 17 43 43 65 58 45 31 342 340 342 356 0 7 -358 10 -1095
10 l-1095 0 0 -27 c0 -49 -110 -242 -257 -450 -51 -72 -93 -134 -93 -137 0 -2
-26 -40 -58 -83 -33 -43 -72 -100 -87 -128 -16 -27 -37 -61 -47 -75 -71 -95
-208 -327 -253 -426 -51 -111 -91 -184 -208 -370 l-44 -70 -66 -1 c-47 -1 -69
3 -78 14 -17 19 -147 85 -277 139 -107 44 -152 69 -152 82 0 17 261 344 389
487 39 44 124 141 188 215 123 141 690 716 756 765 21 15 42 36 48 47 9 17
-18 18 -881 18 -803 0 -890 -2 -890 -16 0 -8 -24 -41 -53 -72 -29 -31 -75 -84
-103 -117 -27 -33 -89 -106 -139 -164 -112 -129 -305 -377 -353 -454 -73 -116
-235 -348 -239 -343 -6 6 119 245 157 301 15 22 37 60 50 85 111 221 353 528
545 693 39 33 74 66 78 74 7 11 -292 13 -1813 13 l-1820 0 0 -3130z m4323
2195 c-37 -54 -100 -141 -138 -194 -39 -53 -81 -112 -93 -132 -12 -20 -43 -65
-69 -100 -27 -36 -55 -76 -64 -89 l-16 -24 -69 29 c-38 16 -73 32 -77 35 -5 4
18 31 50 61 32 30 165 159 295 288 131 129 240 232 244 229 3 -4 -25 -50 -63
-103z m-597 -606 c16 -17 16 -22 4 -30 -14 -9 -67 -5 -78 5 -2 3 -1 14 3 25 8
27 46 27 71 0z m22 -91 c51 -19 58 -29 46 -63 -9 -22 -57 -45 -96 -45 -40 0
-199 27 -207 36 -3 3 18 28 47 56 l52 50 53 -7 c28 -4 76 -16 105 -27z m327
-88 c44 -21 107 -62 140 -91 61 -52 143 -109 157 -109 20 0 5 49 -22 75 -55
53 -39 55 135 16 50 -11 91 -21 93 -21 9 0 -4 -24 -42 -74 -25 -31 -68 -100
-97 -153 -28 -53 -63 -108 -76 -121 l-25 -25 -30 30 c-25 26 -30 39 -32 84
l-1 54 43 -2 c72 -3 55 16 -88 102 -52 31 -148 82 -212 113 -65 31 -118 61
-118 66 0 15 70 96 84 96 6 0 48 -18 91 -40z m3903 -62 c13 -13 18 -252 6
-282 -8 -22 -12 -21 -106 23 -88 42 -241 107 -346 147 -199 76 -200 88 -7 105
230 19 437 23 453 7z m-4498 -77 c52 -10 112 -22 133 -25 41 -8 47 -24 19 -50
-17 -15 -29 -15 -115 -4 -82 10 -108 10 -179 -4 -46 -9 -85 -14 -88 -11 -7 7
108 113 123 113 7 0 55 -9 107 -19z m360 -146 c9 -8 40 -25 70 -39 30 -13 69
-38 85 -56 39 -42 76 -60 120 -60 35 0 101 -36 169 -92 23 -20 28 -30 23 -50
-19 -73 -118 -134 -242 -150 -38 -4 -162 -12 -275 -16 -193 -8 -250 -17 -250
-41 0 -17 48 -21 252 -21 207 0 352 12 376 32 7 6 15 8 18 5 14 -14 -12 -51
-57 -84 -52 -37 -55 -43 -39 -74 9 -15 0 -39 -49 -127 -33 -59 -67 -134 -76
-167 -9 -33 -62 -152 -117 -265 -55 -113 -123 -263 -153 -335 -29 -71 -70
-170 -92 -220 -75 -168 -162 -402 -254 -681 -50 -154 -111 -335 -135 -404 -42
-122 -182 -606 -243 -844 -31 -119 -38 -176 -22 -176 4 0 30 51 56 113 26 61
66 155 90 207 23 52 57 129 75 170 37 85 58 120 72 120 14 0 35 -58 62 -172
43 -185 56 -295 64 -561 l7 -258 25 -19 c38 -30 51 -26 37 11 -11 27 -10 32 7
45 30 22 99 17 163 -12 32 -14 87 -32 121 -40 35 -8 116 -33 180 -55 65 -22
155 -49 202 -60 47 -10 144 -35 215 -53 121 -32 312 -64 599 -102 129 -16 147
-22 171 -57 14 -20 25 -22 108 -25 173 -7 556 65 774 144 112 40 400 111 492
120 49 6 65 4 79 -10 17 -15 20 -14 39 7 29 32 53 82 53 112 0 37 -48 125
-134 247 -76 107 -103 129 -142 114 -19 -7 -17 -26 20 -158 13 -48 33 -99 45
-114 12 -15 19 -29 17 -32 -3 -2 -124 57 -270 133 -146 75 -271 133 -276 130
-7 -4 -7 -12 0 -25 5 -10 10 -34 10 -53 0 -27 -8 -42 -35 -66 -20 -17 -45 -31
-57 -31 -11 0 -140 40 -287 89 -146 49 -313 101 -371 114 -94 23 -326 82 -650
166 -63 16 -159 44 -214 60 -54 17 -106 31 -115 31 -9 0 -68 16 -131 36 -149
46 -366 97 -505 120 -98 16 -113 21 -141 49 -37 36 -54 88 -54 161 0 46 5 58
40 100 45 54 46 51 -32 68 -21 5 -28 12 -28 30 0 50 390 726 419 726 16 0 54
-73 86 -166 38 -110 148 -289 206 -335 43 -34 99 -58 137 -59 12 0 49 14 82
30 68 34 105 38 115 13 6 -16 8 -15 20 7 15 28 105 108 174 155 192 131 291
226 306 296 12 54 -20 131 -90 218 -38 46 -81 115 -101 160 l-36 78 82 239
c100 292 182 485 267 627 36 59 91 165 124 235 79 170 103 213 168 306 73 104
122 156 150 156 57 0 132 -64 175 -148 9 -18 50 -69 91 -114 41 -44 86 -104
100 -134 27 -56 35 -64 130 -121 82 -49 148 -76 230 -97 39 -10 81 -22 95 -27
14 -4 88 -11 165 -14 177 -7 180 -7 302 -34 108 -24 143 -20 143 17 0 30 -22
50 -79 72 -57 22 -94 45 -149 92 -18 16 -78 51 -133 78 -54 28 -99 54 -99 59
0 5 12 18 26 28 23 17 25 22 13 40 -11 18 -8 27 20 72 44 68 125 108 260 128
127 19 281 -1 281 -37 0 -17 -65 -83 -94 -95 l-29 -12 92 -63 c51 -34 90 -64
88 -67 -3 -3 -51 9 -106 27 -55 18 -105 29 -110 25 -6 -3 -11 -16 -11 -28 0
-13 -7 -33 -16 -45 -15 -22 -14 -23 20 -37 19 -8 41 -15 48 -15 35 0 516 -168
593 -207 33 -17 109 -50 169 -73 126 -50 162 -76 152 -108 -9 -28 -29 -28
-105 4 -100 40 -106 22 -8 -25 49 -23 91 -50 94 -58 8 -19 -3 -101 -50 -388
-43 -264 -98 -650 -97 -686 0 -14 -20 -147 -45 -295 -24 -148 -47 -303 -50
-344 -6 -83 -20 -185 -40 -305 -8 -44 -19 -147 -25 -230 -6 -82 -19 -217 -30
-300 -10 -82 -24 -240 -30 -350 -6 -110 -17 -317 -25 -460 -8 -143 -15 -314
-15 -380 l0 -121 -62 -61 c-35 -33 -102 -89 -149 -124 -207 -154 -247 -185
-289 -220 -25 -20 -97 -67 -160 -104 -106 -63 -187 -105 -540 -286 -230 -117
-505 -236 -850 -367 -177 -67 -476 -166 -610 -201 -85 -22 -187 -49 -227 -60
-207 -57 -456 -91 -658 -91 -193 0 -231 13 -335 119 -87 88 -155 171 -269 329
-45 62 -121 159 -169 215 -48 56 -116 140 -151 187 -36 47 -112 135 -170 195
-93 97 -119 132 -212 290 -123 208 -194 331 -269 465 -29 52 -82 147 -118 210
-98 175 -292 599 -373 819 l-39 103 15 137 c23 215 104 633 150 774 14 43 25
86 25 96 0 27 75 315 106 406 14 44 40 112 56 150 16 39 36 95 44 125 8 30 28
83 44 117 40 87 67 193 75 299 6 81 4 97 -14 139 -20 46 -21 49 -4 74 10 14
26 44 36 66 18 39 123 216 195 327 20 31 62 96 93 145 31 48 82 124 113 168
31 44 86 124 123 178 36 54 75 104 87 112 41 27 476 50 476 25 0 -5 -25 -57
-54 -115 -30 -58 -73 -152 -94 -208 -22 -56 -71 -172 -110 -257 -101 -225
-134 -310 -278 -731 -95 -279 -143 -477 -113 -467 8 3 41 86 75 185 86 252
194 539 252 668 27 61 78 175 112 255 83 193 193 411 244 485 23 33 54 81 69
108 47 80 51 81 291 84 116 2 214 3 219 3 4 0 7 4 7 9 0 5 -15 12 -33 15 -58
11 -80 45 -87 134 -6 86 -16 108 -71 169 -43 47 -46 58 -23 84 13 14 21 16 42
8 15 -6 34 -17 42 -24z m-706 -225 c74 -9 114 -33 86 -50 -20 -13 -186 -13
-211 0 -24 13 -25 36 -1 49 21 13 38 13 126 1z m4830 -64 c29 -18 42 -54 27
-69 -8 -8 -23 -8 -54 0 -76 21 -207 75 -207 85 0 17 205 3 234 -16z m-4986
-49 c3 -24 0 -27 -27 -27 -33 0 -37 9 -20 41 15 28 43 20 47 -14z m2012 -265
c0 -16 -9 -55 -21 -88 -44 -125 -223 -650 -299 -880 -44 -132 -86 -248 -93
-258 -11 -15 -15 -16 -47 -2 -19 8 -67 44 -107 79 -52 47 -91 72 -143 93 -40
15 -74 34 -77 41 -6 16 26 72 152 258 179 265 205 299 359 483 67 79 145 173
173 210 77 97 103 114 103 64z m2763 -158 c29 -14 67 -38 86 -52 l34 -25 -6
-76 c-7 -91 -34 -222 -48 -236 -6 -6 -29 0 -67 20 -65 34 -66 40 -42 152 12
56 12 70 -4 140 -10 43 -21 84 -23 91 -8 19 12 15 70 -14z m497 -946 c13 -329
13 -718 0 -888 -11 -142 -29 -296 -85 -730 -19 -146 -43 -353 -55 -460 -12
-107 -28 -244 -35 -305 -8 -60 -19 -157 -25 -215 -34 -332 -43 -363 -127 -440
-136 -125 -350 -290 -376 -290 -32 0 -30 44 13 290 10 58 21 134 25 170 10 99
101 735 129 905 26 155 88 474 130 675 40 193 60 281 232 1025 41 178 119 478
136 518 21 53 28 6 38 -255z m-6691 -3927 c8 -5 20 -40 27 -78 6 -37 33 -170
58 -294 25 -125 46 -231 46 -237 0 -13 -134 -78 -287 -138 -65 -26 -150 -64
-189 -86 -73 -39 -245 -112 -413 -174 -65 -24 -97 -32 -105 -24 -20 20 20 736
50 898 7 37 55 49 224 57 215 10 227 9 293 -25 31 -17 66 -30 76 -30 20 0 86
45 148 101 45 42 50 44 72 30z"/>
<path d="M2942 5360 c-75 -43 -88 -75 -71 -166 11 -51 19 -70 32 -72 15 -3 17
5 17 56 0 62 19 101 77 164 22 23 25 48 5 48 -4 0 -31 -14 -60 -30z"/>
<path d="M3653 5104 c-8 -23 3 -27 140 -59 67 -15 169 -39 227 -52 112 -26
157 -35 315 -58 252 -37 435 -75 530 -110 55 -20 214 -95 354 -167 252 -130
276 -138 288 -101 8 24 -379 250 -551 322 -42 18 -117 37 -177 47 -331 51
-425 69 -679 126 -304 69 -434 84 -447 52z"/>
<path d="M3600 3353 c0 -81 77 -221 145 -263 65 -40 278 -107 364 -114 79 -7
89 -6 170 24 47 17 114 45 149 61 53 25 63 33 60 52 -2 15 -11 23 -28 25 -91
12 -451 111 -645 178 -88 30 -172 57 -187 61 -26 5 -28 3 -28 -24z"/>
</g>
</svg>
