<?xml version="1.0" standalone="no"?>
<!DOCTYPE svg PUBLIC "-//W3C//DTD SVG 20010904//EN"
 "http://www.w3.org/TR/2001/REC-SVG-20010904/DTD/svg10.dtd">
<svg version="1.0" xmlns="http://www.w3.org/2000/svg"
 width="384.000000pt" height="384.000000pt" viewBox="0 0 384.000000 384.000000"
 preserveAspectRatio="xMidYMid meet">
<metadata>
Created by potrace 1.11, written by Peter Selinger 2001-2013
</metadata>
<g transform="translate(0.000000,384.000000) scale(0.100000,-0.100000)"
fill="#000000" stroke="none">
<path d="M0 2442 l0 -1399 25 -13 c15 -8 29 -27 35 -49 5 -20 32 -115 60 -211
27 -96 50 -178 50 -181 0 -3 -38 -16 -85 -29 l-85 -23 0 -268 0 -269 1920 0
1920 0 0 1920 0 1920 -418 0 -419 0 -7 -137 c-4 -76 -9 -214 -12 -308 -3 -93
-7 -172 -9 -173 -2 -2 -93 -5 -202 -6 -205 -2 -274 -12 -451 -65 l-65 -20 31
27 c62 54 30 96 -41 55 -18 -10 -40 -17 -49 -15 -27 5 31 88 140 198 l94 94
58 0 c32 0 62 -4 65 -10 3 -5 -3 -10 -15 -10 -26 0 -58 -66 -41 -83 16 -16 59
8 79 43 10 18 31 35 51 41 41 14 351 324 351 351 0 17 -25 18 -432 18 l-433 0
-33 -58 c-18 -31 -72 -116 -121 -188 -49 -71 -114 -175 -144 -230 -34 -62 -60
-99 -70 -99 -9 0 -22 -6 -29 -13 -6 -6 -19 -12 -27 -12 -14 0 -14 -1 -1 -10
28 -18 -2 -10 -61 16 l-58 26 45 58 c118 150 426 470 453 470 6 0 11 9 11 20
0 20 -7 20 -1040 20 l-1040 0 0 -1398z m2970 683 l0 -24 -40 18 c-58 26 -59
31 -7 31 43 0 47 -2 47 -25z m-1467 -140 c-6 -17 -25 -15 -31 3 -2 7 5 12 17
12 14 0 19 -5 14 -15z m-293 -77 c-1 -20 -47 -103 -56 -103 -5 0 -9 -11 -10
-25 0 -14 -17 -63 -36 -110 -55 -131 -106 -290 -134 -418 -41 -186 -41 -172
-6 -172 27 0 31 4 37 38 26 141 189 553 290 734 8 15 25 18 112 18 116 0 119
-3 78 -64 -14 -20 -25 -43 -25 -49 0 -7 -18 -51 -41 -98 -85 -175 -218 -536
-283 -769 -50 -181 -86 -325 -86 -346 0 -33 46 -35 55 -1 11 41 100 247 106
247 13 0 29 -127 29 -223 l0 -97 38 -19 c176 -90 547 -141 784 -107 59 8 135
25 170 37 94 32 166 49 196 48 24 -2 24 -2 5 -6 -28 -5 -30 -19 -4 -26 25 -6
46 7 70 47 30 47 26 83 -15 141 -19 28 -47 67 -61 88 -20 29 -32 37 -56 37
-29 0 -30 0 -24 -47 2 -27 8 -56 12 -67 11 -27 -150 58 -286 150 -143 97 -199
122 -302 135 -46 6 -90 15 -97 19 -21 13 -2 97 29 121 74 57 147 111 159 118
11 6 12 22 7 66 -7 49 -14 65 -46 100 -22 23 -39 50 -39 59 0 37 84 237 142
339 34 59 63 115 64 123 1 9 4 17 6 18 59 38 56 38 72 7 9 -16 21 -35 28 -43
7 -7 25 -31 39 -54 28 -42 77 -66 149 -70 96 -6 159 -13 200 -22 25 -6 87 -13
138 -17 74 -6 92 -5 92 6 0 25 -14 35 -78 64 -34 15 -61 29 -59 31 4 5 191
-59 229 -78 17 -8 28 -21 28 -34 0 -13 12 -26 36 -37 19 -10 33 -21 30 -25 -3
-5 -16 -89 -30 -188 -14 -98 -32 -224 -41 -279 -14 -97 -33 -244 -54 -430 -6
-49 -14 -183 -17 -297 l-7 -208 -111 -84 c-260 -195 -724 -396 -1065 -460
-104 -20 -164 -20 -201 -1 -16 8 -59 54 -96 102 -89 115 -157 196 -215 258
-77 81 -254 395 -343 607 l-45 106 24 119 c39 189 86 347 143 480 37 88 37
113 -3 113 -33 0 -32 14 4 39 26 19 28 25 21 51 -10 33 20 87 160 297 64 95
79 113 105 116 63 8 85 7 85 -5z m990 -55 c0 -7 4 -13 9 -13 5 0 16 -11 25
-25 13 -20 14 -29 5 -47 -11 -20 -13 -20 -24 -5 -7 9 -17 17 -22 17 -17 0 -50
45 -56 78 -9 43 20 61 45 29 10 -12 18 -28 18 -34z m303 -2 c-3 -13 -11 -17
-25 -13 -20 5 -20 6 -3 19 26 18 34 16 28 -6z m-750 -257 c-27 -76 -49 -141
-51 -143 -1 -3 -8 3 -15 11 -6 9 -24 22 -39 30 l-27 13 52 76 c63 92 118 161
123 156 2 -2 -17 -66 -43 -143z m1316 -462 c-5 -57 -17 -176 -29 -265 -22
-175 -36 -297 -46 -392 -11 -107 -20 -126 -86 -179 -60 -49 -60 -49 -54 -20 3
16 19 124 36 239 32 231 56 355 127 670 l48 210 6 -80 c4 -44 3 -126 -2 -183z
m-1640 -47 c13 -30 39 -69 59 -86 30 -26 41 -30 78 -27 44 3 44 3 44 -30 0
-28 -3 -32 -18 -27 -51 16 -181 35 -238 35 -35 0 -64 2 -64 4 0 10 104 186
109 186 3 0 17 -25 30 -55z m-32 -216 c48 -12 159 -34 245 -49 l158 -28 182
-92 c101 -50 190 -99 198 -107 13 -14 13 -15 -2 -10 -38 13 -217 66 -273 81
-33 8 -136 36 -230 62 -232 64 -315 84 -347 84 -20 0 -28 7 -36 29 -7 20 -7
32 1 40 13 13 0 15 104 -10z m258 -400 c40 -15 43 -18 15 -13 -19 4 -53 12
-75 19 -30 10 -34 13 -15 13 14 0 48 -8 75 -19z m-1260 -103 c19 -7 19 -8 2
-17 -22 -13 -37 -3 -37 24 0 13 3 17 8 11 4 -6 16 -14 27 -18z m22 -401 c40
-42 93 -50 93 -14 0 16 5 20 28 17 25 -3 28 -8 44 -83 27 -128 30 -120 -69
-167 -124 -57 -226 -98 -231 -93 -3 3 0 71 7 152 9 110 15 150 26 156 8 4 15
18 15 31 0 49 40 49 87 1z"/>
<path d="M1073 2035 c-39 -17 -42 -44 -16 -124 13 -42 20 -51 40 -51 21 0 23
4 23 48 0 36 5 54 20 67 11 10 20 31 20 47 0 24 -4 28 -27 28 -16 -1 -43 -7
-60 -15z"/>
<path d="M1323 1244 c7 -62 31 -93 100 -128 79 -40 160 -41 240 -3 50 24 57
31 57 56 0 27 -4 30 -42 36 -55 9 -212 52 -256 71 -19 8 -50 14 -70 14 l-35 0
6 -46z"/>
<path d="M2433 3367 c-31 -17 -66 -65 -59 -82 8 -22 19 -19 53 18 49 52 53 89
6 64z"/>
</g>
</svg>
